# xmcd CD database file
#
# Track frame offsets:
#	150
#	20810
#	41360
#	64015
#
# Disc length: 1125 seconds
#
# Revision: 0
# Processed by: cddbd v1.5PL3 Copyright (c) Steve Scherf et al.
# Submitted via: CDex 1.51
#
DISCID=2d046304
DTITLE=BoA - Every Heart -ミンナノキモチ-
DYEAR=2002
DGENRE=JPop
TTITLE0=Every Heart -ミンナノキモチ-
TTITLE1=Every Heart (English Version)
TTITLE2=LISTEN TO MY HEART (Ken Harada's TB-Bassin' Remix)
TTITLE3=Every Heart -ミンナノキモチ- (Instrumental)
EXTD=YEAR: 2002
EXTT0=
EXTT1=
EXTT2=
EXTT3=
PLAYORDER=
